<svg xmlns="http://www.w3.org/2000/svg" viewBox="0 0 200 183" fill="none">
  <path d="M69.8,150.5 C67.5,150.5 64.7,146.1 62.3,143.9 C59.8,141.6 57.5,139.2 55.2,136.8 C52.8,134.4 50.5,132.1 48.1,129.7 C45.8,127.4 43.4,125.0 41.0,122.6 C38.7,120.3 36.3,117.9 34.0,115.6 C31.6,113.2 29.2,110.8 26.9,108.5 C24.5,106.1 22.1,103.9 19.8,101.4 C17.5,99.0 15.3,96.5 13.2,93.9 C11.2,91.2 9.2,88.4 7.5,85.4 C5.9,82.3 4.3,79.2 3.3,75.5 C2.3,71.8 1.5,67.4 1.4,63.2 C1.3,59.0 2.0,54.4 2.8,50.5 C3.6,46.5 4.7,42.9 6.1,39.6 C7.5,36.3 9.4,33.4 11.3,30.7 C13.3,27.9 15.6,25.6 17.9,23.1 C20.2,20.7 22.6,18.4 25.0,16.0 C27.4,13.7 29.7,11.3 32.1,9.0 C34.4,6.6 35.7,3.1 39.2,1.9 C42.6,0.6 48.2,1.5 52.8,1.4 C57.5,1.3 62.3,1.4 67.0,1.4 C71.7,1.4 76.4,1.4 81.1,1.4 C85.8,1.4 93.2,0.4 95.3,1.4 C97.4,2.4 95.3,5.3 93.9,7.5 C92.5,9.7 89.2,12.3 86.8,14.6 C84.4,17.0 82.1,19.3 79.7,21.7 C77.4,24.1 75.0,26.4 72.6,28.8 C70.3,31.1 67.9,33.5 65.6,35.8 C63.2,38.2 60.6,40.3 58.5,42.9 C56.4,45.5 54.1,48.1 52.8,51.4 C51.6,54.7 50.7,59.0 50.9,62.7 C51.2,66.4 52.7,70.4 54.2,73.6 C55.8,76.7 58.2,79.1 60.4,81.6 C62.6,84.1 65.1,86.3 67.5,88.7 C69.8,91.0 72.2,93.4 74.5,95.8 C76.9,98.1 79.2,100.5 81.6,102.8 C84.0,105.2 86.6,107.2 88.7,109.9 C90.7,112.6 93.6,115.6 93.9,118.9 C94.2,122.2 92.3,126.7 90.6,129.7 C88.8,132.7 85.8,134.4 83.5,136.8 C81.1,139.2 78.7,141.6 76.4,143.9 C74.1,146.1 72.2,150.5 69.8,150.5Z" fill="#314085"/>
  <path d="M159.4,180.7 C157.0,180.7 150.0,180.7 145.3,180.7 C140.6,180.7 135.8,180.7 131.1,180.7 C126.4,180.7 121.7,180.7 117.0,180.7 C112.3,180.7 104.9,181.6 102.8,180.7 C100.8,179.7 103.2,177.1 104.7,175.0 C106.2,172.9 109.4,170.3 111.8,167.9 C114.2,165.6 116.5,163.2 118.9,160.9 C121.2,158.5 123.6,156.1 125.9,153.8 C128.3,151.4 130.7,149.1 133.0,146.7 C135.4,144.3 138.0,142.2 140.1,139.6 C142.2,137.0 144.4,134.4 145.8,131.1 C147.1,127.9 148.2,124.0 148.1,120.3 C148.0,116.6 146.8,112.2 145.3,109.0 C143.8,105.7 141.4,103.5 139.2,100.9 C137.0,98.4 134.4,96.2 132.1,93.9 C129.7,91.5 127.4,89.2 125.0,86.8 C122.6,84.4 120.3,82.1 117.9,79.7 C115.6,77.4 113.0,75.2 110.9,72.6 C108.7,70.0 105.7,67.5 105.2,64.2 C104.7,60.8 106.4,56.0 108.0,52.8 C109.6,49.7 112.3,47.7 114.6,45.3 C116.9,42.8 119.3,40.5 121.7,38.2 C124.1,35.9 126.7,31.6 129.2,31.6 C131.8,31.6 134.4,35.9 136.8,38.2 C139.2,40.5 141.5,42.9 143.9,45.3 C146.2,47.6 148.6,50.0 150.9,52.4 C153.3,54.7 155.7,57.1 158.0,59.4 C160.4,61.8 162.7,64.2 165.1,66.5 C167.5,68.9 169.8,71.2 172.2,73.6 C174.5,75.9 177.0,78.2 179.2,80.7 C181.5,83.1 183.8,85.5 185.8,88.2 C187.9,90.9 189.9,93.6 191.5,96.7 C193.2,99.8 194.7,102.9 195.8,106.6 C196.8,110.3 197.6,114.7 197.6,118.9 C197.7,123.0 197.0,127.7 196.2,131.6 C195.4,135.5 194.3,139.2 192.9,142.5 C191.5,145.8 189.7,148.7 187.7,151.4 C185.8,154.2 183.4,156.5 181.1,159.0 C178.9,161.4 176.4,163.7 174.1,166.0 C171.7,168.4 169.3,170.8 167.0,173.1 C164.6,175.5 161.2,178.9 159.9,180.2 C158.6,181.4 161.9,180.6 159.4,180.7Z" fill="#314085"/>
</svg>
