<?xml version="1.0" encoding="UTF-8"?>
<svg id="Layer_2" data-name="Layer 2" xmlns="http://www.w3.org/2000/svg" viewBox="0 0 244.66 63.83">
  <defs>
    <style>
      .cls-1 {
        fill: #50bc89;
        stroke-width: 0px;
      }
    </style>
  </defs>
  <g id="Layer_1-2" data-name="Layer 1">
    <path class="cls-1" d="M126.66,0h-12.99v63.83h12.99V0Z"/>
    <path class="cls-1" d="M0,.07h13.79v28.63L39.58.07h16.72l-23.65,26.25,25.19,37.51h-16.52l-18.39-26.91-9.13,10.14v16.77H0V.07Z"/>
    <path class="cls-1" d="M108.67,63.23h-6.6c-5.93,0-8.86-2.59-8.73-7.69-1.73,2.65-3.86,4.71-6.33,6.1-2.53,1.39-5.53,2.12-9.13,2.12-5.26,0-9.53-1.19-12.79-3.58-3.2-2.45-4.8-5.83-4.8-10.21,0-4.97,1.87-8.81,5.53-11.47,3.73-2.72,9.13-4.11,16.19-4.11h9.39v-2.25c0-2.12-.8-3.78-2.4-5.04-1.6-1.26-3.73-1.92-6.46-1.92-2.4,0-4.33.53-5.86,1.52-1.53,1.06-2.47,2.45-2.73,4.18h-12.59c.4-4.77,2.6-8.48,6.46-11.13,3.86-2.65,9-4.04,15.39-4.04s11.86,1.46,15.46,4.37c3.66,2.92,5.53,7.16,5.53,12.66v16.5c0,1.13.27,1.92.73,2.39.47.4,1.27.66,2.33.66h1.4v10.94ZM81.89,42.95c-2.67,0-4.8.53-6.33,1.66-1.47,1.06-2.2,2.52-2.2,4.44,0,1.66.6,2.92,1.87,3.91,1.27.99,3,1.46,5.13,1.46,3.4,0,6.06-.93,8-2.85,1.93-1.92,3-4.51,3.06-7.75v-.86h-9.53Z"/>
    <path class="cls-1" d="M143.92,47.65c.2,2.05,1.2,3.71,3.06,5.04,1.87,1.26,4.2,1.92,7.06,1.92s4.93-.4,6.53-1.26c1.6-.93,2.4-2.19,2.4-3.84,0-1.19-.4-2.12-1.13-2.72-.73-.6-1.8-1.06-3.13-1.26-1.33-.33-3.53-.66-6.6-.99-4.2-.53-7.66-1.26-10.39-2.12-2.73-.86-5-2.19-6.6-4.04-1.67-1.86-2.47-4.24-2.47-7.29s.8-5.7,2.47-8.02c1.73-2.39,4.13-4.18,7.2-5.5,3.07-1.26,6.6-1.92,10.59-1.92,6.46.07,11.59,1.46,15.52,4.11,4,2.65,6.13,6.36,6.46,11.13h-12.33c-.2-1.79-1.13-3.18-2.87-4.31-1.67-1.13-3.8-1.72-6.46-1.72-2.47,0-4.46.46-6,1.39-1.47.93-2.2,2.12-2.2,3.65,0,1.13.4,1.92,1.2,2.45.8.53,1.87.93,3.13,1.19,1.27.27,3.46.53,6.46.8,6.4.73,11.26,2.12,14.59,4.11,3.46,1.92,5.13,5.3,5.13,10.14,0,3.05-.93,5.7-2.73,8.02-1.8,2.32-4.26,4.11-7.53,5.37-3.2,1.19-6.93,1.86-11.13,1.86-6.53,0-11.93-1.46-15.99-4.31-4.13-2.92-6.26-6.89-6.53-11.86h12.26Z"/>
    <path class="cls-1" d="M221.28,21.47c-3.6-3.38-8.13-5.1-13.73-5.1s-10.46,2.12-13.99,6.36V0h-12.99v63.83h12.99v-24.06c0-4.04.87-7.16,2.73-9.41,1.87-2.25,4.46-3.38,7.8-3.38s5.6,1.06,7.2,3.12c1.6,1.99,2.4,4.9,2.4,8.81v24.92h12.99v-25.45c0-7.89-1.8-13.52-5.4-16.9Z"/>
    <path class="cls-1" d="M231.67,16.9h12.99v46.86h-12.99V16.9Z"/>
    <path class="cls-1" d="M242.73,1.86c-1.2-1.19-2.73-1.86-4.6-1.86s-3.4.66-4.66,1.86c-1.2,1.19-1.87,2.65-1.87,4.44s.67,3.31,1.87,4.51c1.27,1.19,2.87,1.86,4.66,1.86s3.4-.6,4.6-1.86c1.2-1.26,1.87-2.72,1.87-4.51s-.67-3.31-1.87-4.44Z"/>
  </g>
</svg>